<svg width="19" height="24" viewBox="0 0 19 24" fill="none" xmlns="http://www.w3.org/2000/svg">
<path d="M10.208 23.68C8.07467 23.68 6.29333 22.8267 4.864 21.12V23.36H0V0H4.864V8.672C6.208 6.816 7.98933 5.888 10.208 5.888C12.3413 5.888 14.176 6.688 15.712 8.288C17.248 9.86667 18.016 12.0213 18.016 14.752V14.816C18.016 17.5467 17.248 19.712 15.712 21.312C14.1973 22.8907 12.3627 23.68 10.208 23.68ZM5.984 18.24C6.79467 19.1147 7.78667 19.552 8.96 19.552C10.1333 19.552 11.1253 19.1147 11.936 18.24C12.7467 17.3653 13.152 16.224 13.152 14.816V14.752C13.152 13.3653 12.7467 12.2347 11.936 11.36C11.1253 10.464 10.1333 10.016 8.96 10.016C7.78667 10.016 6.79467 10.464 5.984 11.36C5.19467 12.2347 4.8 13.3653 4.8 14.752V14.816C4.8 16.2027 5.19467 17.344 5.984 18.24Z" fill="#313131"/>
</svg>
